# xmcd
#
# Track frame offsets: 
#        150
#        17378
#        31487
#        51456
#        74754
#        94688
#        99139
#        116887
#        138359
#        153190
#        160090
#        182140
#        201338
#        216563
#        237033
#
# Disc length: 3329 seconds
#
# Revision: 1
# Processed by: cddbd v1.5.2PL0 Copyright (c) Steve Scherf et al.
# Submitted via: ExactAudioCopyFreeDBPlugin 1.0
#
DISCID=d10cff0f
DTITLE=Coughee Brothaz - Waitin' Our Turn
DYEAR=2007
DGENRE=Hip-Hop
TTITLE0=Rise and Shine
TTITLE1=Coughee In My Cup
TTITLE2=The More I Smoke
TTITLE3=On The Road
TTITLE4=Fresh Rims And Vouges
TTITLE5=It's Time (Skit)
TTITLE6=Don't Get Me Wrong
TTITLE7=Cockhounds
TTITLE8=Highway
TTITLE9=High School Sweethearts (Skit)
TTITLE10=On A Hunt For A Lady
TTITLE11=Want Some?
TTITLE12=Piece Of The Pie
TTITLE13=Yee Haw!!
TTITLE14=Medieval Times (Skit)
EXTD=
EXTT0=
EXTT1=
EXTT2=
EXTT3=
EXTT4=
EXTT5=
EXTT6=
EXTT7=
EXTT8=
EXTT9=
EXTT10=
EXTT11=
EXTT12=
EXTT13=
EXTT14=
PLAYORDER=
